<?xml version="1.0" encoding="iso-8859-1"?>
<!-- Generator: Adobe Illustrator 18.1.0, SVG Export Plug-In . SVG Version: 6.00 Build 0)  -->
<svg version="1.1" xmlns="http://www.w3.org/2000/svg" xmlns:xlink="http://www.w3.org/1999/xlink" x="0px" y="0px"
	 viewBox="0 0 227.436 227.436" style="enable-background:new 0 0 227.436 227.436;" xml:space="preserve">
<g id="Layer_26">
	<g>
		<path style="fill:#9BC549;" d="M113.719,0C50.912,0,0,50.912,0,113.718c0,8.474,0.956,16.72,2.713,24.665
			c11.27,50.941,56.674,89.053,111.006,89.053c54.33,0,99.733-38.111,111.004-89.053c1.756-7.945,2.713-16.191,2.713-24.665
			C227.436,50.912,176.523,0,113.719,0z"/>
	</g>
	<g>
		<path style="fill:#729D49;" d="M164.68,188.706c0,3.014-2.385,5.457-5.328,5.457H76.476c-2.943,0-5.328-2.443-5.328-5.457V55.319
			c0-3.014,2.385-5.457,5.328-5.457h82.876c2.942,0,5.328,2.443,5.328,5.457V188.706z"/>
		<path style="fill:#E9EBEA;" d="M164.68,185.423c0,2.942-2.385,5.328-5.328,5.328H76.476c-2.943,0-5.328-2.385-5.328-5.328V55.189
			c0-2.943,2.385-5.328,5.328-5.328h82.876c2.942,0,5.328,2.385,5.328,5.328V185.423z"/>
		<rect x="82.89" y="62.688" style="fill:#C9C9C9;" width="70.049" height="31.769"/>
		<rect x="82.89" y="62.688" style="opacity:0.44;fill:#A6A6A6;" width="70.049" height="0.947"/>
		<g>
			<g>
				<path style="fill:#A6A6A6;" d="M94.038,117.109c0,1.145-0.927,2.072-2.072,2.072H81.31c-1.145,0-2.072-0.927-2.072-2.072
					v-10.655c0-1.145,0.927-2.072,2.072-2.072h10.655c1.145,0,2.072,0.927,2.072,2.072V117.109z"/>
				<path style="fill:#A6A6A6;" d="M113.169,117.109c0,1.145-0.927,2.072-2.072,2.072h-10.655c-1.145,0-2.072-0.927-2.072-2.072
					v-10.655c0-1.145,0.927-2.072,2.072-2.072h10.655c1.145,0,2.072,0.927,2.072,2.072V117.109z"/>
				<path style="fill:#A6A6A6;" d="M132.301,117.109c0,1.145-0.927,2.072-2.072,2.072h-10.655c-1.145,0-2.072-0.927-2.072-2.072
					v-10.655c0-1.145,0.927-2.072,2.072-2.072h10.655c1.145,0,2.072,0.927,2.072,2.072V117.109z"/>
				<path style="fill:#A6A6A6;" d="M151.432,117.109c0,1.145-0.927,2.072-2.072,2.072h-10.655c-1.145,0-2.072-0.927-2.072-2.072
					v-10.655c0-1.145,0.927-2.072,2.072-2.072h10.655c1.145,0,2.072,0.927,2.072,2.072V117.109z"/>
			</g>
			<g>
				<path style="fill:#A6A6A6;" d="M94.038,138.816c0,1.145-0.927,2.072-2.072,2.072H81.31c-1.145,0-2.072-0.927-2.072-2.072V128.16
					c0-1.145,0.927-2.072,2.072-2.072h10.655c1.145,0,2.072,0.927,2.072,2.072V138.816z"/>
				<path style="fill:#A6A6A6;" d="M113.169,138.816c0,1.145-0.927,2.072-2.072,2.072h-10.655c-1.145,0-2.072-0.927-2.072-2.072
					V128.16c0-1.145,0.927-2.072,2.072-2.072h10.655c1.145,0,2.072,0.927,2.072,2.072V138.816z"/>
				<path style="fill:#A6A6A6;" d="M132.301,138.816c0,1.145-0.927,2.072-2.072,2.072h-10.655c-1.145,0-2.072-0.927-2.072-2.072
					V128.16c0-1.145,0.927-2.072,2.072-2.072h10.655c1.145,0,2.072,0.927,2.072,2.072V138.816z"/>
				<path style="fill:#A6A6A6;" d="M151.432,138.816c0,1.145-0.927,2.072-2.072,2.072h-10.655c-1.145,0-2.072-0.927-2.072-2.072
					V128.16c0-1.145,0.927-2.072,2.072-2.072h10.655c1.145,0,2.072,0.927,2.072,2.072V138.816z"/>
			</g>
			<g>
				<path style="fill:#A6A6A6;" d="M94.038,160.522c0,1.145-0.927,2.072-2.072,2.072H81.31c-1.145,0-2.072-0.927-2.072-2.072
					v-10.655c0-1.145,0.927-2.072,2.072-2.072h10.655c1.145,0,2.072,0.927,2.072,2.072V160.522z"/>
				<path style="fill:#A6A6A6;" d="M113.169,160.522c0,1.145-0.927,2.072-2.072,2.072h-10.655c-1.145,0-2.072-0.927-2.072-2.072
					v-10.655c0-1.145,0.927-2.072,2.072-2.072h10.655c1.145,0,2.072,0.927,2.072,2.072V160.522z"/>
				<path style="fill:#A6A6A6;" d="M132.301,160.522c0,1.145-0.927,2.072-2.072,2.072h-10.655c-1.145,0-2.072-0.927-2.072-2.072
					v-10.655c0-1.145,0.927-2.072,2.072-2.072h10.655c1.145,0,2.072,0.927,2.072,2.072V160.522z"/>
				<path style="fill:#A6A6A6;" d="M151.432,160.522c0,1.145-0.927,2.072-2.072,2.072h-10.655c-1.145,0-2.072-0.927-2.072-2.072
					v-10.655c0-1.145,0.927-2.072,2.072-2.072h10.655c1.145,0,2.072,0.927,2.072,2.072V160.522z"/>
			</g>
			<g>
				<path style="fill:#A6A6A6;" d="M94.038,182.228c0,1.145-0.927,2.072-2.072,2.072H81.31c-1.145,0-2.072-0.927-2.072-2.072
					v-10.655c0-1.145,0.927-2.072,2.072-2.072h10.655c1.145,0,2.072,0.927,2.072,2.072V182.228z"/>
				<path style="fill:#A6A6A6;" d="M113.169,182.228c0,1.145-0.927,2.072-2.072,2.072h-10.655c-1.145,0-2.072-0.927-2.072-2.072
					v-10.655c0-1.145,0.927-2.072,2.072-2.072h10.655c1.145,0,2.072,0.927,2.072,2.072V182.228z"/>
				<path style="fill:#A6A6A6;" d="M132.301,182.228c0,1.145-0.927,2.072-2.072,2.072h-10.655c-1.145,0-2.072-0.927-2.072-2.072
					v-10.655c0-1.145,0.927-2.072,2.072-2.072h10.655c1.145,0,2.072,0.927,2.072,2.072V182.228z"/>
				<path style="fill:#A6A6A6;" d="M151.432,182.228c0,1.145-0.927,2.072-2.072,2.072h-10.655c-1.145,0-2.072-0.927-2.072-2.072
					v-10.655c0-1.145,0.927-2.072,2.072-2.072h10.655c1.145,0,2.072,0.927,2.072,2.072V182.228z"/>
			</g>
		</g>
		<g>
			<g>
				<path style="fill:#BABABA;" d="M94.038,116.025c0,1.145-0.927,2.072-2.072,2.072H81.31c-1.145,0-2.072-0.927-2.072-2.072
					v-10.655c0-1.145,0.927-2.072,2.072-2.072h10.655c1.145,0,2.072,0.927,2.072,2.072V116.025z"/>
				<path style="fill:#BABABA;" d="M113.169,116.025c0,1.145-0.927,2.072-2.072,2.072h-10.655c-1.145,0-2.072-0.927-2.072-2.072
					v-10.655c0-1.145,0.927-2.072,2.072-2.072h10.655c1.145,0,2.072,0.927,2.072,2.072V116.025z"/>
				<path style="fill:#BABABA;" d="M132.301,116.025c0,1.145-0.927,2.072-2.072,2.072h-10.655c-1.145,0-2.072-0.927-2.072-2.072
					v-10.655c0-1.145,0.927-2.072,2.072-2.072h10.655c1.145,0,2.072,0.927,2.072,2.072V116.025z"/>
				<path style="fill:#BABABA;" d="M151.432,116.025c0,1.145-0.927,2.072-2.072,2.072h-10.655c-1.145,0-2.072-0.927-2.072-2.072
					v-10.655c0-1.145,0.927-2.072,2.072-2.072h10.655c1.145,0,2.072,0.927,2.072,2.072V116.025z"/>
			</g>
			<g>
				<path style="fill:#BABABA;" d="M94.038,137.731c0,1.145-0.927,2.072-2.072,2.072H81.31c-1.145,0-2.072-0.927-2.072-2.072
					v-10.655c0-1.145,0.927-2.072,2.072-2.072h10.655c1.145,0,2.072,0.927,2.072,2.072V137.731z"/>
				<path style="fill:#BABABA;" d="M113.169,137.731c0,1.145-0.927,2.072-2.072,2.072h-10.655c-1.145,0-2.072-0.927-2.072-2.072
					v-10.655c0-1.145,0.927-2.072,2.072-2.072h10.655c1.145,0,2.072,0.927,2.072,2.072V137.731z"/>
				<path style="fill:#BABABA;" d="M132.301,137.731c0,1.145-0.927,2.072-2.072,2.072h-10.655c-1.145,0-2.072-0.927-2.072-2.072
					v-10.655c0-1.145,0.927-2.072,2.072-2.072h10.655c1.145,0,2.072,0.927,2.072,2.072V137.731z"/>
				<path style="fill:#BABABA;" d="M151.432,137.731c0,1.145-0.927,2.072-2.072,2.072h-10.655c-1.145,0-2.072-0.927-2.072-2.072
					v-10.655c0-1.145,0.927-2.072,2.072-2.072h10.655c1.145,0,2.072,0.927,2.072,2.072V137.731z"/>
			</g>
			<g>
				<path style="fill:#BABABA;" d="M94.038,159.437c0,1.145-0.927,2.072-2.072,2.072H81.31c-1.145,0-2.072-0.927-2.072-2.072
					v-10.655c0-1.145,0.927-2.072,2.072-2.072h10.655c1.145,0,2.072,0.927,2.072,2.072V159.437z"/>
				<path style="fill:#BABABA;" d="M113.169,159.437c0,1.145-0.927,2.072-2.072,2.072h-10.655c-1.145,0-2.072-0.927-2.072-2.072
					v-10.655c0-1.145,0.927-2.072,2.072-2.072h10.655c1.145,0,2.072,0.927,2.072,2.072V159.437z"/>
				<path style="fill:#BABABA;" d="M132.301,159.437c0,1.145-0.927,2.072-2.072,2.072h-10.655c-1.145,0-2.072-0.927-2.072-2.072
					v-10.655c0-1.145,0.927-2.072,2.072-2.072h10.655c1.145,0,2.072,0.927,2.072,2.072V159.437z"/>
				<path style="fill:#BABABA;" d="M151.432,159.437c0,1.145-0.927,2.072-2.072,2.072h-10.655c-1.145,0-2.072-0.927-2.072-2.072
					v-10.655c0-1.145,0.927-2.072,2.072-2.072h10.655c1.145,0,2.072,0.927,2.072,2.072V159.437z"/>
			</g>
			<g>
				<path style="fill:#BABABA;" d="M94.038,181.145c0,1.143-0.927,2.071-2.072,2.071H81.31c-1.145,0-2.072-0.927-2.072-2.071V170.49
					c0-1.146,0.927-2.073,2.072-2.073h10.655c1.145,0,2.072,0.927,2.072,2.073V181.145z"/>
				<path style="fill:#BABABA;" d="M113.169,181.145c0,1.143-0.927,2.071-2.072,2.071h-10.655c-1.145,0-2.072-0.927-2.072-2.071
					V170.49c0-1.146,0.927-2.073,2.072-2.073h10.655c1.145,0,2.072,0.927,2.072,2.073V181.145z"/>
				<path style="fill:#BABABA;" d="M132.301,181.145c0,1.143-0.927,2.071-2.072,2.071h-10.655c-1.145,0-2.072-0.927-2.072-2.071
					V170.49c0-1.146,0.927-2.073,2.072-2.073h10.655c1.145,0,2.072,0.927,2.072,2.073V181.145z"/>
				<path style="fill:#BABABA;" d="M151.432,181.145c0,1.143-0.927,2.071-2.072,2.071h-10.655c-1.145,0-2.072-0.927-2.072-2.071
					V170.49c0-1.146,0.927-2.073,2.072-2.073h10.655c1.145,0,2.072,0.927,2.072,2.073V181.145z"/>
			</g>
		</g>
		<g>
			<g>
				<rect x="140.444" y="73.18" style="fill:#2D475D;" width="0.888" height="6.512"/>
				<rect x="146.733" y="73.18" style="fill:#2D475D;" width="0.888" height="6.512"/>
				<rect x="141.758" y="72.292" style="fill:#2D475D;" width="4.975" height="0.888"/>
			</g>
			<g>
				<rect x="146.733" y="80.274" style="fill:#2D475D;" width="0.888" height="6.512"/>
				<rect x="140.444" y="80.274" style="fill:#2D475D;" width="0.888" height="6.512"/>
				<rect x="141.332" y="86.786" style="fill:#2D475D;" width="4.975" height="0.888"/>
			</g>
		</g>
	</g>
</g>
<g id="Layer_1">
</g>
</svg>
