<?xml version="1.0" encoding="iso-8859-1"?>
<!-- Generator: Adobe Illustrator 18.1.0, SVG Export Plug-In . SVG Version: 6.00 Build 0)  -->
<svg version="1.1" xmlns="http://www.w3.org/2000/svg" xmlns:xlink="http://www.w3.org/1999/xlink" x="0px" y="0px"
	 viewBox="0 0 225 225" style="enable-background:new 0 0 225 225;" xml:space="preserve">
<g id="Layer_51">
	<circle style="fill:#0C2F40;" cx="112.5" cy="112.5" r="112.5"/>
	<g>
		<path style="fill:#364045;" d="M54.637,90.138h115.727v72.55c0,1.866-1.522,3.388-3.388,3.388H58.025
			c-1.866,0-3.388-1.522-3.388-3.388V90.138z"/>
		<path style="fill:#EAE9E4;" d="M54.637,95.445h115.727v72.55c0,1.866-1.522,3.388-3.388,3.388H58.025
			c-1.866,0-3.388-1.522-3.388-3.388V95.445z"/>
		<path style="fill:#B0AFAB;" d="M54.637,164.945v3.05c0,1.866,1.522,3.388,3.388,3.388h108.95c1.866,0,3.388-1.522,3.388-3.388
			v-3.05H54.637z"/>
		<path style="fill:#48555C;" d="M170.363,68.599v22.676H54.637V68.599c0-1.866,1.522-3.388,3.388-3.388h19.548v6.256
			c0,2.878,2.335,5.213,5.213,5.213h5.213c2.878,0,5.213-2.335,5.213-5.213V65.21h38.576v6.256c0,2.878,2.335,5.213,5.213,5.213
			h5.213c2.878,0,5.213-2.335,5.213-5.213V65.21h19.548C168.841,65.21,170.363,66.733,170.363,68.599z"/>
		<path style="fill:#B9B6AC;" d="M90.139,70.708c0,1.152-0.934,2.085-2.085,2.085h-5.83c-1.152,0-2.085-0.934-2.085-2.085v-10.83
			c0-1.152,0.934-2.085,2.085-2.085h5.83c1.152,0,2.085,0.934,2.085,2.085V70.708z"/>
		<path style="fill:#B9B6AC;" d="M144.139,70.708c0,1.152-0.934,2.085-2.085,2.085h-5.83c-1.152,0-2.085-0.934-2.085-2.085v-10.83
			c0-1.152,0.934-2.085,2.085-2.085h5.83c1.152,0,2.085,0.934,2.085,2.085V70.708z"/>
		<g>
			<path style="fill:#F06E59;" d="M99.013,150.781c-2.19,0-4.035-1.844-4.035-4.035v-24.209l-4.322,4.439
				c-0.634,0.634-1.442,0.922-2.248,0.922c-1.787,0-3.401-1.5-3.401-3.401c0-0.865,0.345-1.73,1.037-2.421l8.875-8.992
				c0.865-0.863,2.133-1.383,3.46-1.383c2.593,0,4.783,2.075,4.783,4.669v30.374C103.163,148.937,101.319,150.781,99.013,150.781z"
				/>
			<path style="fill:#F06E59;" d="M124.603,151.126c-5.014,0-11.527-1.671-13.314-4.668c-0.288-0.519-0.461-1.096-0.461-1.671
				c0-2.133,1.902-3.689,3.919-3.689c0.692,0,1.442,0.23,2.134,0.633c2.247,1.384,4.899,2.133,7.666,2.133
				c4.553,0,7.146-2.593,7.146-5.707c0-3.401-2.535-5.706-6.916-5.706c-2.362,0-4.38,0.461-6.456,1.844
				c-0.921,0.634-2.017,0.98-3.169,0.98c-2.536,0-4.15-1.672-4.15-3.92v-14.755c0-2.535,2.075-4.611,4.611-4.611h18.617
				c1.902,0,3.517,1.614,3.517,3.632c0,1.959-1.615,3.573-3.517,3.573h-15.044v9.395c1.845-1.845,4.957-3.229,8.473-3.229
				c6.513,0,12.335,4.669,12.335,12.45C139.992,145.997,133.884,151.126,124.603,151.126z"/>
		</g>
	</g>
</g>
<g id="Layer_1">
</g>
</svg>
