<?xml version="1.0" encoding="iso-8859-1"?>
<!-- Generator: Adobe Illustrator 18.1.0, SVG Export Plug-In . SVG Version: 6.00 Build 0)  -->
<svg version="1.1" xmlns="http://www.w3.org/2000/svg" xmlns:xlink="http://www.w3.org/1999/xlink" x="0px" y="0px"
	 viewBox="0 0 232 232" style="enable-background:new 0 0 232 232;" xml:space="preserve">
<g id="Layer_20">
	<circle style="fill:#8974B5;" cx="116" cy="116" r="116"/>
	<path style="fill:none;stroke:#BDC6D6;stroke-width:2.7766;" d="M173.533,102.852c-13.916-51.59,8.051-75.133-70.587-42.463
		c-27.438,11.4-52.8,5.984-59.807,18.395c-9.699,17.195,14.428,33.211,19.949,95.176c2.484,9.211,5.911,14.488,10.327,17.078
		c12.297,7.203,31.497-10.23,60.946-14.176c84.4-11.305,53.573-20.609,39.659-72.197L173.533,102.852z"/>
	<circle style="fill:#E75C5A;" cx="114.542" cy="118.706" r="59.884"/>
	<g>
		<defs>
			<circle id="SVGID_15_" cx="114.542" cy="118.706" r="59.884"/>
		</defs>
		<clipPath id="SVGID_1_">
			<use xlink:href="#SVGID_15_"  style="overflow:visible;"/>
		</clipPath>
		<g style="clip-path:url(#SVGID_1_);">
			<path style="fill:#F5F5F5;" d="M84.101,67.135l13.576,26.576l18.875-5.088l0.84-29.748C105.453,55.891,97.5,57.113,84.101,67.135
				z"/>
			<path style="fill:#F5F5F5;" d="M166.07,88.242l-26.574,13.576l5.087,18.875l29.749,0.84
				C177.316,109.596,176.095,101.643,166.07,88.242z"/>
			<path style="fill:#F5F5F5;" d="M144.962,170.213l-13.575-26.574l-18.877,5.086l-0.838,29.748
				C123.609,181.457,131.563,180.236,144.962,170.213z"/>
			<path style="fill:#F5F5F5;" d="M62.993,149.105l26.575-13.576l-5.088-18.875l-29.747-0.838
				C51.748,127.75,52.971,135.707,62.993,149.105z"/>
		</g>
	</g>
	<circle style="fill:#AD4544;" cx="114.54" cy="118.708" r="30.146"/>
	<circle style="fill:#8974B5;" cx="114.54" cy="118.708" r="27.701"/>
</g>
<g id="Layer_1">
</g>
</svg>
