<?xml version="1.0" encoding="iso-8859-1"?>
<!-- Generator: Adobe Illustrator 18.1.0, SVG Export Plug-In . SVG Version: 6.00 Build 0)  -->
<svg version="1.1" xmlns="http://www.w3.org/2000/svg" xmlns:xlink="http://www.w3.org/1999/xlink" x="0px" y="0px"
	 viewBox="0 0 225.834 229.375" style="enable-background:new 0 0 225.834 229.375;" xml:space="preserve">
<g id="Layer_103">
	<g>
		<g>
			<g>
				<g>
					<g>
						
							<ellipse transform="matrix(-1 0.0014 -0.0014 -1 225.999 229.2165)" style="fill:#74C4BA;" cx="112.917" cy="114.69" rx="112.917" ry="114.69"/>
					</g>
				</g>
			</g>
		</g>
	</g>
	<g>
		<g>
			
				<rect x="35.173" y="64.223" transform="matrix(0.9485 -0.3167 0.3167 0.9485 -31.807 42.8869)" style="fill:#416DB4;" width="161.67" height="110.104"/>
			<g style="opacity:0.44;">
				<g>
					<line style="fill:none;stroke:#FFFFFF;stroke-width:0.25;" x1="29.653" y1="115.884" x2="182.355" y2="64.893"/>
					<line style="fill:none;stroke:#FFFFFF;stroke-width:0.25;" x1="33.682" y1="125.803" x2="186.383" y2="74.812"/>
					<line style="fill:none;stroke:#FFFFFF;stroke-width:0.25;" x1="37.177" y1="136.267" x2="189.877" y2="85.276"/>
					<line style="fill:none;stroke:#FFFFFF;stroke-width:0.25;" x1="40.671" y1="146.735" x2="193.372" y2="95.742"/>
					<line style="fill:none;stroke:#FFFFFF;stroke-width:0.25;" x1="44.101" y1="157.002" x2="196.802" y2="106.01"/>
					<line style="fill:none;stroke:#FFFFFF;stroke-width:0.25;" x1="47.632" y1="167.577" x2="200.333" y2="116.586"/>
					<line style="fill:none;stroke:#FFFFFF;stroke-width:0.25;" x1="51.09" y1="177.934" x2="203.79" y2="126.941"/>
				</g>
				<line style="fill:none;stroke:#FFFFFF;stroke-width:0.25;" x1="175.309" y1="41.433" x2="210.146" y2="145.757"/>
				<line style="fill:none;stroke:#FFFFFF;stroke-width:0.25;" x1="21.964" y1="92.64" x2="56.801" y2="196.964"/>
				<line style="fill:none;stroke:#FFFFFF;stroke-width:0.25;" x1="144.685" y1="51.661" x2="179.522" y2="155.983"/>
				<line style="fill:none;stroke:#FFFFFF;stroke-width:0.25;" x1="129.262" y1="56.811" x2="164.099" y2="161.133"/>
				<line style="fill:none;stroke:#FFFFFF;stroke-width:0.25;" x1="114.06" y1="61.885" x2="148.898" y2="166.21"/>
				<line style="fill:none;stroke:#FFFFFF;stroke-width:0.25;" x1="98.419" y1="67.109" x2="133.255" y2="171.435"/>
				<line style="fill:none;stroke:#FFFFFF;stroke-width:0.25;" x1="83.301" y1="72.158" x2="118.139" y2="176.481"/>
				<line style="fill:none;stroke:#FFFFFF;stroke-width:0.25;" x1="68.099" y1="77.236" x2="102.936" y2="181.558"/>
				<line style="fill:none;stroke:#FFFFFF;stroke-width:0.25;" x1="52.456" y1="82.457" x2="87.293" y2="186.782"/>
			</g>
			<line style="opacity:0.7;fill:none;stroke:#FFFFFF;stroke-width:0.75;" x1="26.048" y1="105.088" x2="178.75" y2="54.097"/>
			<line style="opacity:0.7;fill:none;stroke:#FFFFFF;stroke-width:0.75;" x1="159.887" y1="46.583" x2="194.724" y2="150.906"/>
			<line style="opacity:0.7;fill:none;stroke:#FFFFFF;stroke-width:0.75;" x1="54.585" y1="188.4" x2="207.286" y2="137.407"/>
			<line style="opacity:0.7;fill:none;stroke:#FFFFFF;stroke-width:0.75;" x1="37.364" y1="87.498" x2="72.2" y2="191.82"/>
			<path style="opacity:0.28;" d="M210.227,145.853l-27.585-2.665c0,0-1.329-15.354,4.142-16.935
				c5.472-1.582,13.038-2.395,13.038-2.395l3.967,3.084L210.227,145.853z"/>
			<path style="fill:#FBE6EF;" d="M206.549,135.204c-2.992-8.962-26.898-0.979-23.906,7.984L148.497,40.933
				c-3.132-9.379,20.774-17.361,23.907-7.984L206.549,135.204z"/>
			<path style="fill:#CCCCCC;" d="M148.497,40.933l34.146,102.255c-0.785-2.352,0.29-4.629,2.342-6.556L150.758,34.135
				C148.724,36.117,147.676,38.472,148.497,40.933z"/>
			<path style="fill:#D3E7F2;" d="M182.643,143.188"/>
		</g>
		<path style="fill:none;stroke:#FFFFFF;" d="M77.789,135.103c13.083,3.472,24.329,8.23,30.445,14.027
			c0,0,17.047-47.19,33.743-62.934l-5.821,1.096c0,0-21.493,16.591-34.173,46.327l-19.924-7.852L77.789,135.103z"/>
	</g>
</g>
<g id="Layer_1">
</g>
</svg>
