<?xml version="1.0" encoding="iso-8859-1"?>
<!-- Generator: Adobe Illustrator 18.1.0, SVG Export Plug-In . SVG Version: 6.00 Build 0)  -->
<svg version="1.1" xmlns="http://www.w3.org/2000/svg" xmlns:xlink="http://www.w3.org/1999/xlink" x="0px" y="0px"
	 viewBox="0 0 232 232" style="enable-background:new 0 0 232 232;" xml:space="preserve">
<g id="Layer_139">
	<path style="fill:#3DB39E;" d="M232,116c0,52.16-34.43,96.28-81.8,110.88c-10.81,3.33-22.29,5.12-34.2,5.12
		c-27.7,0-53.12-9.7-73.07-25.92c-0.49-0.4-0.97-0.8-1.45-1.21C16.12,183.61,0,151.68,0,116C0,51.93,51.94,0,116,0
		c41.99,0,78.76,22.3,99.12,55.7c5.9,9.67,10.42,20.27,13.29,31.53c1.18,4.64,2.08,9.4,2.69,14.24C231.69,106.23,232,111.08,232,116
		z"/>
	<path style="fill:#5C6C7F;" d="M232,116c0,35.41-15.87,67.12-40.88,88.39c-5.06,4.32-10.5,8.2-16.26,11.59
		c-4.77,2.82-9.75,5.3-14.93,7.4c-5.62,2.32-11.46,4.19-17.49,5.59C133.95,230.95,125.1,232,116,232c-27.7,0-53.12-9.7-73.07-25.92
		V87.23h185.48c1.18,4.64,2.08,9.4,2.69,14.24C231.69,106.23,232,111.08,232,116z"/>
	<path style="fill:#F7F7F7;" d="M228.41,87.23H42.93V60.22c0-2.49,2.03-4.52,4.52-4.52h167.67
		C221.02,65.37,225.54,75.97,228.41,87.23z"/>
	<circle style="fill:#EB9C38;" cx="56.332" cy="64.242" r="2.883"/>
	<circle style="fill:#1377BA;" cx="64.658" cy="64.242" r="2.883"/>
	<circle style="fill:#3BD2F4;" cx="72.986" cy="64.242" r="2.883"/>
	<path style="fill:#E4E7E7;" d="M185.199,74.705H54.726c-1.946,0-3.524,1.577-3.524,3.523v0.641c0,1.946,1.578,3.524,3.524,3.524
		h130.473c1.946,0,3.524-1.577,3.524-3.524v-0.641C188.723,76.282,187.145,74.705,185.199,74.705z"/>
	<path style="fill:#E4E7E7;" d="M219.268,74.705h-21.149c-2.3,0-4.164,1.864-4.164,4.163c0,1.947,1.577,3.524,3.523,3.524h21.79
		c1.947,0,3.524-1.577,3.524-3.523v-0.642C222.791,76.282,221.214,74.705,219.268,74.705z"/>
	<path style="fill:#E4E7E7;" d="M231.1,101.47H42.93V87.23h185.48C229.59,91.87,230.49,96.63,231.1,101.47z"/>
	<path style="opacity:0.11;" d="M150.2,226.88c-10.81,3.33-22.29,5.12-34.2,5.12c-27.7,0-53.12-9.7-73.07-25.92
		c-0.49-0.4-0.97-0.8-1.45-1.21l66.15-66.8l2.16,2.67L150.2,226.88z"/>
	<path style="fill:#DBE7EA;" d="M204.47,182.94v-13.63l-16.3-6.8c-0.45-1.27-0.93-2.51-1.52-3.72l6.58-16.38l-9.64-9.65l-16.24,6.69
		c-1.23-0.6-2.5-1.11-3.8-1.57l-6.92-16.19H143l-6.74,16.14c-1.36,0.48-2.66,0.98-3.96,1.59l-16.2-6.51l-9.64,9.64l6.6,16.06
		c-0.64,1.32-1.15,2.67-1.65,4.05l-16.03,6.86v13.64l16.05,6.68c0.49,1.39,1.02,2.73,1.66,4.05l-6.48,16.16l9.64,9.65l16.1-6.64
		c1.29,0.62,2.61,1.11,3.96,1.58l6.13,14.33c6.03-1.4,11.87-3.27,17.49-5.59l3.67-8.82c1.29-0.48,2.57-0.99,3.79-1.58l7.47,3
		c5.76-3.39,11.2-7.27,16.26-11.59l-4.44-10.77c0.57-1.22,1.04-2.46,1.49-3.73L204.47,182.94z M149.82,196.68
		c-11.3,0-20.46-9.16-20.46-20.45c0-11.29,9.16-20.45,20.46-20.45c11.29,0,20.45,9.16,20.45,20.45
		C170.27,187.52,161.11,196.68,149.82,196.68z"/>
	<path style="fill:#BAC5C7;" d="M149.923,196.685c-11.293,0-20.454-9.161-20.454-20.454c0-11.293,9.161-20.454,20.454-20.454
		c11.293,0,20.454,9.161,20.454,20.454C170.378,187.524,161.216,196.685,149.923,196.685z"/>
	<path style="fill:#314D5B;" d="M149.923,189.726c-7.451,0-13.495-6.044-13.495-13.495s6.044-13.495,13.495-13.495
		c7.451,0,13.495,6.044,13.495,13.495S157.374,189.726,149.923,189.726z"/>
	<path style="fill:#5C6C7F;" d="M149.073,189.726c-6.981,0-12.645-5.664-12.645-12.645c0-6.981,5.664-12.645,12.645-12.645
		c6.981,0,12.645,5.664,12.645,12.645C161.718,184.062,156.055,189.726,149.073,189.726z"/>
</g>
<g id="Layer_1">
</g>
</svg>
