<?xml version="1.0" encoding="iso-8859-1"?>
<!-- Generator: Adobe Illustrator 18.1.0, SVG Export Plug-In . SVG Version: 6.00 Build 0)  -->
<svg version="1.1" xmlns="http://www.w3.org/2000/svg" xmlns:xlink="http://www.w3.org/1999/xlink" x="0px" y="0px"
	 viewBox="0 0 225.004 224.993" style="enable-background:new 0 0 225.004 224.993;" xml:space="preserve">
<g id="Layer_27">
	<g>
		<g>
			<path style="fill:#157A95;" d="M224.997,111.287c0.69,62.13-49.12,113.03-111.25,113.7c-47.15,0.51-87.86-28.08-105.03-69.05
				c-5.46-13-8.54-27.25-8.71-42.22c-0.11-9.95,1.07-19.62,3.4-28.84c12.18-48.31,55.67-84.3,107.84-84.87
				C173.377-0.663,224.297,49.157,224.997,111.287z"/>
		</g>
	</g>
	<path style="fill:#FCCB98;" d="M130.722,94.859c-3.654-14.747,19.776-22.671,5.419-40.042c-0.281-0.335-0.548-0.672-0.857-1.019
		c-2.168-1.243-3.567-1.186-5.605,1.343c0,0-7.728,14.096-10.671,16.828c-2.713,2.513-12.155,10.195-9.801,26.419
		c0.199,1.375,0.472,2.802,0.853,4.303c1.371,5.4,0.525,10.302-1.38,14.568l27.547-4.043l0.247-2.35
		c-0.743-0.407-1.486-0.817-2.227-1.226C129.554,106.222,132.107,100.443,130.722,94.859z"/>
	<path style="fill:#EEA96F;" d="M130.722,94.859c-3.654-14.747,19.776-22.671,5.418-40.042
		c1.256,15.598-16.212,25.645-24.861,37.846c-0.643,1.909-1.294,3.817-2.075,5.725c0.199,1.375,0.472,2.802,0.853,4.303
		c1.371,5.4,0.525,10.302-1.38,14.569l27.547-4.043l0.247-2.35c-0.743-0.407-1.486-0.817-2.227-1.226
		C129.553,106.222,132.107,100.443,130.722,94.859z"/>
	<polygon style="fill:#FCCB98;" points="164.679,119.162 164.459,119.162 164.329,104.092 164.659,104.092 	"/>
	<path style="fill:#EEA96F;" d="M178.685,150.954l-15.319,0.02l-0.01-4.966h-0.08V97.081h0.01l-0.01-8.818l15.319-0.01
		c6.34-0.01,6.531,14.336,0.511,15.089v0.823c5.869,0.712,5.889,14.356,0,15.058v0.893c5.899,0.682,5.909,14.386,0,15.058v0.682
		C185.176,136.528,185.046,150.944,178.685,150.954z"/>
	<path style="fill:#FCCB98;" d="M163.596,88.264l-57.146,0.088c-5.11,0.01-9.29,6.98-9.69,13.42l-7.69,0.01h-0.04l-24.24,0.04
		l0.08,49.3l7.36-0.01l20.58-0.03l70.787-0.108V88.264z"/>
	<polygon style="opacity:0.2;fill:#131318;" points="92.809,151.082 72.229,151.112 89.029,101.782 89.059,101.702 89.069,101.782 	
		"/>
	<polygon style="fill:#F8F8F8;" points="82.5,95.898 89.063,101.707 84.354,156.041 77.551,157.993 	"/>
	<path style="fill:#EF7F69;" d="M85.517,89.127l-0.93,8.62l-2.68,24.99l-3.32,30.83l-0.45,4.26l-0.08,0.7l-69.34-2.59
		c-5.46-13-8.54-27.25-8.71-42.22c-0.11-9.95,1.07-19.62,3.4-28.84L85.517,89.127z"/>
	
		<ellipse transform="matrix(-0.0015 -1 1 -0.0015 -87.6457 210.9687)" style="fill:#F8F8F8;" cx="61.504" cy="149.242" rx="6.804" ry="5.834"/>
</g>
<g id="Layer_1">
</g>
</svg>
